<svg width="200" height="200" viewBox="0 0 200 200" xmlns="http://www.w3.org/2000/svg">
  <!-- Define the blue color for the triskelion and styling for a material design look -->
  <style>
    .triskelion { 
      fill: #0D47A1;
      stroke: none;
    }
  </style>
  
  <!-- Group for the triskelion arms -->
  <g class="triskelion" transform="translate(100, 100)">
    <!-- First arm -->
    <path d="M0,-50 C15,-50 25,-35 25,-25 C25,-15 15,-10 0,-10 C-15,-10 -25,-15 -25,-25 C-25,-35 -15,-50 0,-50 Z" />
    <!-- Rotate the second arm by 120 degrees -->
    <g transform="rotate(120)">
      <path d="M0,-50 C15,-50 25,-35 25,-25 C25,-15 15,-10 0,-10 C-15,-10 -25,-15 -25,-25 C-25,-35 -15,-50 0,-50 Z" />
    </g>
    <!-- Rotate the third arm by 240 degrees -->
    <g transform="rotate(240)">
      <path d="M0,-50 C15,-50 25,-35 25,-25 C25,-15 15,-10 0,-10 C-15,-10 -25,-15 -25,-25 C-25,-35 -15,-50 0,-50 Z" />
    </g>
  </g>
  
  <!-- Center circle for the material design look -->
  <circle class="triskelion" cx="100" cy="100" r="10" />
</svg>
